<?xml version="1.0" encoding="UTF-8"?>
<!DOCTYPE svg PUBLIC "-//W3C//DTD SVG 1.1//EN" "http://www.w3.org/Graphics/SVG/1.1/DTD/svg11.dtd">
<svg xmlns="http://www.w3.org/2000/svg" version="1.1" width="600px" height="400px" style="shape-rendering:geometricPrecision; text-rendering:geometricPrecision; image-rendering:optimizeQuality; fill-rule:evenodd; clip-rule:evenodd" xmlns:xlink="http://www.w3.org/1999/xlink">
<g><path style="opacity:1" fill="#931cff" d="M 175.5,51.5 C 188.833,51.5 202.167,51.5 215.5,51.5C 215.5,63.1667 215.5,74.8333 215.5,86.5C 226.833,86.5 238.167,86.5 249.5,86.5C 249.5,98.1667 249.5,109.833 249.5,121.5C 282.833,121.5 316.167,121.5 349.5,121.5C 349.5,109.833 349.5,98.1667 349.5,86.5C 360.833,86.5 372.167,86.5 383.5,86.5C 383.5,74.8333 383.5,63.1667 383.5,51.5C 396.833,51.5 410.167,51.5 423.5,51.5C 423.5,64.5 423.5,77.5 423.5,90.5C 411.833,90.5 400.167,90.5 388.5,90.5C 388.5,100.833 388.5,111.167 388.5,121.5C 400.167,121.5 411.833,121.5 423.5,121.5C 423.5,133.167 423.5,144.833 423.5,156.5C 435.167,156.5 446.833,156.5 458.5,156.5C 458.5,168.5 458.5,180.5 458.5,192.5C 469.833,192.5 481.167,192.5 492.5,192.5C 492.5,228.833 492.5,265.167 492.5,301.5C 479.5,301.5 466.5,301.5 453.5,301.5C 453.5,278.167 453.5,254.833 453.5,231.5C 443.5,231.5 433.5,231.5 423.5,231.5C 423.5,254.833 423.5,278.167 423.5,301.5C 411.833,301.5 400.167,301.5 388.5,301.5C 388.5,313.167 388.5,324.833 388.5,336.5C 363.833,336.5 339.167,336.5 314.5,336.5C 314.5,323.5 314.5,310.5 314.5,297.5C 337.5,297.5 360.5,297.5 383.5,297.5C 383.5,287.167 383.5,276.833 383.5,266.5C 327.5,266.5 271.5,266.5 215.5,266.5C 215.5,276.833 215.5,287.167 215.5,297.5C 238.5,297.5 261.5,297.5 284.5,297.5C 284.5,310.5 284.5,323.5 284.5,336.5C 259.833,336.5 235.167,336.5 210.5,336.5C 210.5,324.833 210.5,313.167 210.5,301.5C 198.833,301.5 187.167,301.5 175.5,301.5C 175.5,278.167 175.5,254.833 175.5,231.5C 165.5,231.5 155.5,231.5 145.5,231.5C 145.5,254.833 145.5,278.167 145.5,301.5C 132.5,301.5 119.5,301.5 106.5,301.5C 106.5,265.167 106.5,228.833 106.5,192.5C 117.833,192.5 129.167,192.5 140.5,192.5C 140.5,180.5 140.5,168.5 140.5,156.5C 152.167,156.5 163.833,156.5 175.5,156.5C 175.5,144.833 175.5,133.167 175.5,121.5C 187.167,121.5 198.833,121.5 210.5,121.5C 210.5,111.167 210.5,100.833 210.5,90.5C 198.833,90.5 187.167,90.5 175.5,90.5C 175.5,77.5 175.5,64.5 175.5,51.5 Z M 215.5,160.5 C 225.167,160.5 234.833,160.5 244.5,160.5C 244.5,171.167 244.5,181.833 244.5,192.5C 234.833,192.5 225.167,192.5 215.5,192.5C 215.5,181.833 215.5,171.167 215.5,160.5 Z M 354.5,160.5 C 364.167,160.5 373.833,160.5 383.5,160.5C 383.5,171.167 383.5,181.833 383.5,192.5C 373.833,192.5 364.167,192.5 354.5,192.5C 354.5,181.833 354.5,171.167 354.5,160.5 Z"/></g>
</svg>
